<?xml version="1.0" encoding="UTF-8" standalone="no"?>
<!-- Created with Inkscape (http://www.inkscape.org/) -->

<svg
   xmlns:dc="http://purl.org/dc/elements/1.1/"
   xmlns:cc="http://creativecommons.org/ns#"
   xmlns:rdf="http://www.w3.org/1999/02/22-rdf-syntax-ns#"
   xmlns:svg="http://www.w3.org/2000/svg"
   xmlns="http://www.w3.org/2000/svg"
   xmlns:xlink="http://www.w3.org/1999/xlink"
   version="1.1"
   width="898.75"
   height="180"
   id="svg2"
   xml:space="preserve"><metadata
     id="metadata8"><rdf:RDF><cc:Work
         rdf:about=""><dc:format>image/svg+xml</dc:format><dc:type
           rdf:resource="http://purl.org/dc/dcmitype/StillImage" /><dc:title></dc:title></cc:Work></rdf:RDF></metadata><defs
     id="defs6"><linearGradient
       id="linearGradient19768"><stop
         id="stop19770"
         style="stop-color:#0482fd;stop-opacity:1"
         offset="0" /><stop
         id="stop19795"
         style="stop-color:#7abeff;stop-opacity:1"
         offset="0.5" /><stop
         id="stop19772"
         style="stop-color:#fefeff;stop-opacity:1"
         offset="1" /></linearGradient><linearGradient
       x1="175.07603"
       y1="208.94957"
       x2="6.2034874"
       y2="208.2603"
       id="linearGradient19774"
       xlink:href="#linearGradient19768"
       gradientUnits="userSpaceOnUse"
       gradientTransform="matrix(0.8259625,0,0,4.0103312,-4.0201271,-899.03873)" /><linearGradient
       x1="175.07603"
       y1="208.94957"
       x2="6.2034874"
       y2="208.2603"
       id="linearGradient19799"
       xlink:href="#linearGradient19768"
       gradientUnits="userSpaceOnUse"
       gradientTransform="matrix(0.92194016,0,0,4.0103312,79.583432,-899.03873)" /><linearGradient
       x1="175.07603"
       y1="208.94957"
       x2="6.2034874"
       y2="208.2603"
       id="linearGradient19803"
       xlink:href="#linearGradient19768"
       gradientUnits="userSpaceOnUse"
       gradientTransform="matrix(0.93224853,0,0,4.0103312,148.53939,-899.03873)" /><linearGradient
       x1="175.07603"
       y1="208.94957"
       x2="6.2034874"
       y2="208.2603"
       id="linearGradient19807"
       xlink:href="#linearGradient19768"
       gradientUnits="userSpaceOnUse"
       gradientTransform="matrix(0.74050158,0,0,4.0103312,235.36873,-899.03873)" /><clipPath
       id="clipPath23205"><path
         d="m 0.534375,-138.16 59.016025,-0.32 24.883599,0.107 0.1742,138.050344 -84.073824,0 0,-137.837344 z m 83.899624,-0.213 0,0 c 0.103104,0.014 0.2094,0.026 0.3156,0.035 30.938401,3.322 55.265401,33.29 55.265401,69.1489 0,36.892996 -26.288,68.916052 -55.406801,68.916052 L 84.433999,-138.373 z"
         id="path23207"
         style="fill:#000000" /></clipPath><clipPath
       id="clipPath23232"><path
         d="m 162.959,-97.3211 0,21.7977 54.336,0 0,35.7 -54.412,-0.04728 0.076,39.848048 -78.064496,-0.202736 0,-40.148808 -0.171104,0 0,-35.0215 0.171104,0 0,-62.764304 48.520486,0 106.884,0 0.057,40.8389 -77.397,0 z"
         id="path23234"
         style="fill:#000000" /></clipPath><clipPath
       id="clipPath23256"><path
         d="m 153.68199,-138.296 157.43001,0 -70.441,63.4058 70.441,74.698792 -157.43,0 0,-138.104592 z"
         id="path23258"
         style="fill:#000000" /></clipPath><linearGradient
       x1="175.07603"
       y1="208.94957"
       x2="6.2034874"
       y2="208.2603"
       id="linearGradient3524"
       xlink:href="#linearGradient19768"
       gradientUnits="userSpaceOnUse"
       gradientTransform="matrix(0.92562697,0,0,5.012914,294.21091,-943.79841)" /></defs><path
     d="m 480.3125,7.9375 0,28.625 10.875,0 c 2.14,0 3.85125,-0.2175 5.125,-0.625 1.70625,-0.54625 3.0625,-1.30125 4.0625,-2.28125 1.33375,-1.2875 2.34875,-2.95125 3.0625,-5.03125 0.58625,-1.70625 0.875,-3.74 0.875,-6.09375 0,-2.68625 -0.28625,-4.94875 -0.90625,-6.78125 -0.62625,-1.82625 -1.54875,-3.365 -2.75,-4.625 -1.1925,-1.26625 -2.6325,-2.1625 -4.3125,-2.65625 C 495.09,8.1025 493.2875,7.9375 490.90625,7.9375 l -10.59375,0 z m 132.25,0 0,28.625 5.46875,0 0,-10.40625 c 0,-1.74 0.16625,-3.04375 0.5,-3.9375 0.3275,-0.8925 0.87375,-1.56 1.59375,-2 0.71375,-0.44625 1.52375,-0.6875 2.4375,-0.6875 0.79375,0 1.4425,0.185 1.96875,0.53125 0.52625,0.34625 0.88,0.82 1.09375,1.40625 0.2075,0.5875 0.3125,1.95125 0.3125,4.125 l 0,10.96875 5.5,0 0,-12.15625 c 0,-1.86 -0.0875,-3.245 -0.28125,-4.125 -0.1875,-0.88625 -0.54875,-1.705 -1.0625,-2.4375 C 629.58,17.1175 628.825,16.53 627.8125,16.0625 c -1.02125,-0.46625 -2.17125,-0.71875 -3.4375,-0.71875 -2.46125,0 -4.57,1.0275 -6.34375,3.09375 l 0,-10.5 -5.46875,0 z M 561.625,8.5 l -5.5,3.1875 0,4.125 -2.53125,0 0,4.375 2.53125,0 0,9.03125 c 0,1.94 0.0738,3.24125 0.1875,3.875 0.14625,0.89875 0.37625,1.62875 0.75,2.15625 0.3725,0.52625 0.95625,0.94875 1.75,1.28125 0.79375,0.32625 1.70125,0.5 2.6875,0.5 1.62,0 3.06375,-0.26625 4.34375,-0.8125 L 565.375,31.9375 c -0.96625,0.34625 -1.70625,0.53125 -2.21875,0.53125 -0.36125,0 -0.68375,-0.07 -0.9375,-0.25 C 561.96625,32.03125 561.8225,31.78 561.75,31.5 c -0.0738,-0.28 -0.125,-1.24375 -0.125,-2.9375 l 0,-8.375 3.75,0 0,-4.375 -3.75,0 0,-7.3125 z m -75.53125,4.28125 2.59375,0 c 2.36,0 3.94375,0.06375 4.75,0.25 1.08,0.23375 1.98125,0.70875 2.6875,1.375 0.7,0.66 1.23125,1.56375 1.625,2.75 0.38625,1.18625 0.59375,2.88 0.59375,5.09375 0,2.2125 -0.2075,3.97 -0.59375,5.25 -0.39375,1.28 -0.88125,2.22125 -1.5,2.78125 -0.62125,0.56 -1.41125,0.955 -2.34375,1.1875 -0.72,0.1875 -1.8875,0.25 -3.5,0.25 l -4.3125,0 0,-18.9375 z m 31,2.5625 c -2.7475,0 -5.02,0.96 -6.8125,2.90625 -1.8,1.94625 -2.6875,4.65375 -2.6875,8.09375 0,2.87375 0.665,5.27 2.03125,7.15625 1.73375,2.36 4.425,3.53125 8.03125,3.53125 2.28,0 4.175,-0.54 5.6875,-1.59375 1.52,-1.04625 2.60625,-2.55625 3.3125,-4.5625 l -5.46875,-0.90625 c -0.29375,1.04 -0.72625,1.77625 -1.3125,2.25 -0.58625,0.46625 -1.29625,0.71875 -2.15625,0.71875 -1.26,0 -2.34125,-0.46875 -3.1875,-1.375 -0.8475,-0.9 -1.27375,-2.155 -1.3125,-3.78125 l 13.75,0 c 0.0725,-4.20625 -0.7825,-7.335 -2.5625,-9.375 -1.78625,-2.04 -4.22625,-3.0625 -7.3125,-3.0625 z m 58.53125,0 c -2.98,0 -5.17375,0.6175 -6.59375,1.84375 -1.42,1.22 -2.125,2.73875 -2.125,4.53125 0,1.99375 0.82875,3.53625 2.46875,4.65625 1.18625,0.80625 3.98,1.715 8.40625,2.6875 0.94625,0.22 1.57,0.45875 1.84375,0.71875 0.26,0.27375 0.375,0.61125 0.375,1.03125 0,0.6075 -0.2325,1.1075 -0.71875,1.46875 -0.7125,0.52625 -1.7675,0.78125 -3.1875,0.78125 -1.29375,0 -2.3175,-0.29 -3.03125,-0.84375 -0.72,-0.5525 -1.17375,-1.34 -1.40625,-2.40625 l -5.5,0.8125 c 0.5075,1.96625 1.5725,3.5475 3.21875,4.6875 1.65375,1.14625 3.8925,1.71875 6.71875,1.71875 3.11375,0 5.445,-0.695 7.03125,-2.0625 1.59375,-1.36625 2.40625,-3.00625 2.40625,-4.90625 0,-1.74 -0.5725,-3.0825 -1.71875,-4.0625 -1.16,-0.96625 -3.205,-1.7775 -6.125,-2.4375 C 574.76,22.89625 573.055,22.36625 572.5625,22 572.195,21.72625 572,21.39375 572,21 c 0,-0.45375 0.21125,-0.8075 0.625,-1.09375 0.6275,-0.4075 1.64625,-0.625 3.09375,-0.625 1.14625,0 2.03625,0.2225 2.65625,0.65625 0.62,0.42625 1.03,1.0375 1.25,1.84375 l 5.1875,-0.9375 c -0.52,-1.81375 -1.46375,-3.19875 -2.84375,-4.125 -1.38,-0.92125 -3.5025,-1.375 -6.34375,-1.375 z m 23.53125,0 c -3.08625,0 -5.53125,0.96125 -7.34375,2.875 -1.80625,1.90625 -2.6875,4.58 -2.6875,8 0,3.38625 0.88,6.02375 2.6875,7.9375 1.8,1.9125 4.2175,2.875 7.25,2.875 2.67375,0 4.81875,-0.64 6.40625,-1.90625 1.58625,-1.26 2.66,-3.12125 3.21875,-5.59375 L 603.28125,28.625 c -0.2725,1.44 -0.74,2.4375 -1.40625,3.03125 -0.6675,0.5925 -1.51625,0.90625 -2.5625,0.90625 -1.39375,0 -2.48625,-0.5175 -3.3125,-1.53125 -0.8275,-1.01375 -1.25,-2.7575 -1.25,-5.21875 0,-2.2125 0.405,-3.8025 1.21875,-4.75 0.8125,-0.93875 1.90875,-1.40625 3.28125,-1.40625 1.02625,0 1.85375,0.2975 2.5,0.84375 0.6475,0.54625 1.07125,1.3575 1.25,2.4375 l 5.40625,-1 c -0.65375,-2.22625 -1.73125,-3.8825 -3.21875,-4.96875 -1.4925,-1.0875 -3.505,-1.625 -6.03125,-1.625 z m 45.75,0 c -2.7475,0 -5.01875,0.96 -6.8125,2.90625 -1.8,1.94625 -2.6875,4.65375 -2.6875,8.09375 0,2.87375 0.66375,5.27 2.03125,7.15625 1.7325,2.36 4.425,3.53125 8.03125,3.53125 2.28,0 4.175,-0.54 5.6875,-1.59375 1.52125,-1.04625 2.60625,-2.55625 3.3125,-4.5625 L 649,29.96875 c -0.2925,1.04 -0.72625,1.77625 -1.3125,2.25 -0.58625,0.46625 -1.29625,0.71875 -2.15625,0.71875 -1.26,0 -2.34125,-0.46875 -3.1875,-1.375 -0.8475,-0.9 -1.2725,-2.155 -1.3125,-3.78125 l 13.75,0 c 0.0725,-4.20625 -0.78375,-7.335 -2.5625,-9.375 -1.7875,-2.04 -4.22625,-3.0625 -7.3125,-3.0625 z m 21.90625,0 c -2.98,0 -5.205,0.6175 -6.625,1.84375 -1.42,1.22 -2.125,2.73875 -2.125,4.53125 0,1.99375 0.82875,3.53625 2.46875,4.65625 1.18625,0.80625 4.01125,1.715 8.4375,2.6875 0.9475,0.22 1.53875,0.45875 1.8125,0.71875 0.26,0.27375 0.40625,0.61125 0.40625,1.03125 0,0.6075 -0.23125,1.1075 -0.71875,1.46875 -0.7125,0.52625 -1.8,0.78125 -3.21875,0.78125 -1.29375,0 -2.28625,-0.29 -3,-0.84375 -0.72,-0.5525 -1.20375,-1.34 -1.4375,-2.40625 l -5.5,0.8125 c 0.50625,1.96625 1.5725,3.5475 3.21875,4.6875 1.65375,1.14625 3.89125,1.71875 6.71875,1.71875 3.1125,0 5.475,-0.695 7.0625,-2.0625 1.5925,-1.36625 2.375,-3.00625 2.375,-4.90625 0,-1.74 -0.57125,-3.0825 -1.71875,-4.0625 -1.16,-0.96625 -3.205,-1.7775 -6.125,-2.4375 -2.92625,-0.66625 -4.63125,-1.19625 -5.125,-1.5625 -0.3675,-0.27375 -0.53125,-0.60625 -0.53125,-1 0,-0.45375 0.18,-0.8075 0.59375,-1.09375 0.62625,-0.4075 1.6775,-0.625 3.125,-0.625 1.14625,0 2.03625,0.2225 2.65625,0.65625 0.62,0.42625 1.03,1.0375 1.25,1.84375 l 5.15625,-0.9375 c -0.52,-1.81375 -1.46375,-3.19875 -2.84375,-4.125 -1.37875,-0.92125 -3.4725,-1.375 -6.3125,-1.375 z m -135.5,0.46875 0,13.125 c 0,1.9525 0.2575,3.4875 0.75,4.59375 0.5,1.1075 1.29875,1.98 2.40625,2.59375 1.10625,0.6075 2.35625,0.90625 3.75,0.90625 1.36625,0 2.6725,-0.335 3.90625,-0.96875 1.22625,-0.64 2.20875,-1.51875 2.96875,-2.625 l 0,3.125 5.09375,0 0,-20.75 -5.5,0 0,8.75 c 0,2.96625 -0.1325,4.82625 -0.40625,5.59375 -0.2725,0.76 -0.79125,1.38625 -1.53125,1.90625 -0.74,0.51375 -1.56,0.78125 -2.5,0.78125 -0.82125,0 -1.4975,-0.175 -2.03125,-0.5625 -0.5325,-0.38625 -0.89375,-0.90875 -1.09375,-1.5625 -0.2075,-0.66 -0.3125,-2.455 -0.3125,-5.375 l 0,-9.53125 -5.5,0 z m -13.875,3.71875 c 1.12,0 2.06375,0.42375 2.84375,1.25 0.78,0.82625 1.17875,2.0325 1.21875,3.625 l -8.1875,0 c -0.0125,-1.5 0.37625,-2.69625 1.15625,-3.5625 0.78,-0.87375 1.77,-1.3125 2.96875,-1.3125 z m 127.8125,0 c 1.12,0 2.06375,0.42375 2.84375,1.25 0.78,0.82625 1.17875,2.0325 1.21875,3.625 l -8.1875,0 c -0.0125,-1.5 0.37625,-2.69625 1.15625,-3.5625 0.78,-0.87375 1.76875,-1.3125 2.96875,-1.3125 z M 480.375,52.625 l 0,28.625 5.78125,0 0,-12.1875 11.96875,0 0,-4.84375 -11.96875,0 0,-6.75 13.84375,0 0,-4.84375 -19.625,0 z m 108.84375,0 0,28.625 5.46875,0 0,-10.40625 c 0,-1.74025 0.1675,-3.044 0.5,-3.9375 0.3275,-0.893125 0.87375,-1.559625 1.59375,-2 0.71375,-0.446875 1.52375,-0.6875 2.4375,-0.6875 0.79375,0 1.4425,0.1845 1.96875,0.53125 0.52625,0.346625 0.88125,0.819875 1.09375,1.40625 0.2075,0.587 0.34375,1.95175 0.34375,4.125 l 0,10.96875 5.46875,0 0,-12.1875 c 0,-1.859875 -0.0875,-3.213375 -0.28125,-4.09375 -0.1875,-0.88675 -0.54875,-1.704625 -1.0625,-2.4375 -0.5125,-0.727 -1.26875,-1.314375 -2.28125,-1.78125 -1.02,-0.46675 -2.17125,-0.71875 -3.4375,-0.71875 -2.46,0 -4.57,1.02675 -6.34375,3.09375 l 0,-10.5 -5.46875,0 z m 192.4375,0.5625 -5.53125,3.1875 0,4.125 -2.5,0 0,4.375 2.5,0 0,9.03125 c 0,1.939875 0.075,3.24175 0.1875,3.875 0.1475,0.9 0.4075,1.629375 0.78125,2.15625 0.37375,0.52625 0.9575,0.94825 1.75,1.28125 0.79375,0.32675 1.67,0.5 2.65625,0.5 1.62,0 3.06375,-0.296875 4.34375,-0.84375 l -0.46875,-4.25 c -0.9675,0.346125 -1.705,0.53125 -2.21875,0.53125 -0.36,0 -0.6525,-0.101125 -0.90625,-0.28125 -0.25375,-0.1865 -0.42625,-0.40725 -0.5,-0.6875 -0.0725,-0.27975 -0.0937,-1.244125 -0.0937,-2.9375 l 0,-8.375 3.75,0 0,-4.375 -3.75,0 0,-7.3125 z m -267.5,6.84375 c -2.0325,0 -3.885,0.443875 -5.53125,1.34375 -1.64625,0.893625 -2.9125,2.206625 -3.8125,3.90625 -0.8925,1.707125 -1.34375,3.461375 -1.34375,5.28125 0,2.38675 0.45125,4.434125 1.34375,6.09375 0.9,1.66025 2.21125,2.921375 3.9375,3.78125 1.72625,0.85975 3.53125,1.28125 5.4375,1.28125 3.07375,0 5.63,-1.02725 7.65625,-3.09375 2.02,-2.066875 3.03125,-4.67925 3.03125,-7.8125 0,-3.11375 -0.9925,-5.67825 -3,-7.71875 -2.00625,-2.039625 -4.585,-3.0625 -7.71875,-3.0625 z m 24.59375,0 c -0.88625,0 -1.675,0.21625 -2.375,0.65625 -0.6925,0.44 -1.47125,1.3565 -2.34375,2.75 l 0,-2.9375 -5.09375,0 0,20.75 5.5,0 0,-6.40625 c 0,-3.526375 0.13125,-5.86225 0.4375,-6.96875 0.3075,-1.106375 0.74125,-1.861375 1.28125,-2.28125 0.5325,-0.426375 1.16375,-0.625 1.9375,-0.625 0.7925,0 1.6425,0.281625 2.5625,0.875 L 542.375,61.0625 c -1.16,-0.692875 -2.37125,-1.03125 -3.625,-1.03125 z m 13.53125,0 c -2.97875,0 -5.17375,0.617125 -6.59375,1.84375 -1.42,1.21975 -2.125,2.73825 -2.125,4.53125 0,1.993625 0.82875,3.536125 2.46875,4.65625 1.1875,0.80625 3.98,1.713875 8.40625,2.6875 0.94625,0.22025 1.57,0.4595 1.84375,0.71875 0.26,0.273875 0.375,0.611375 0.375,1.03125 0,0.607 -0.23125,1.108375 -0.71875,1.46875 C 555.225,77.495125 554.17,77.75 552.75,77.75 c -1.2925,0 -2.28625,-0.2905 -3,-0.84375 C 549.03,76.353 548.545,75.566375 548.3125,74.5 l -5.5,0.8125 c 0.5075,1.96675 1.57125,3.547375 3.21875,4.6875 1.6525,1.1465 3.8925,1.71875 6.71875,1.71875 3.11375,0 5.445,-0.69575 7.03125,-2.0625 1.59375,-1.366625 2.40625,-3.006375 2.40625,-4.90625 0,-1.73975 -0.5725,-3.0825 -1.71875,-4.0625 -1.16,-0.96625 -3.205,-1.77725 -6.125,-2.4375 -2.92625,-0.6665 -4.6325,-1.19575 -5.125,-1.5625 -0.3675,-0.273375 -0.5625,-0.606875 -0.5625,-1 0,-0.453625 0.21125,-0.807125 0.625,-1.09375 0.6275,-0.40675 1.6775,-0.625 3.125,-0.625 1.14625,0 2.005,0.222625 2.625,0.65625 0.62,0.42675 1.06125,1.037125 1.28125,1.84375 l 5.15625,-0.9375 c -0.52,-1.813375 -1.46375,-3.19875 -2.84375,-4.125 -1.38,-0.9205 -3.5025,-1.375 -6.34375,-1.375 z m 23.5625,0 c -3.08625,0 -5.56125,0.961375 -7.375,2.875 -1.80625,1.90675 -2.6875,4.580125 -2.6875,8 0,3.38625 0.88,6.023875 2.6875,7.9375 1.8,1.9135 4.2175,2.875 7.25,2.875 2.67375,0 4.81875,-0.639625 6.40625,-1.90625 1.58625,-1.25975 2.65875,-3.120625 3.21875,-5.59375 L 579.9375,73.3125 c -0.2725,1.439875 -0.74,2.4375 -1.40625,3.03125 -0.66625,0.59275 -1.51625,0.90625 -2.5625,0.90625 -1.39375,0 -2.48625,-0.5185 -3.3125,-1.53125 -0.8275,-1.013625 -1.25,-2.75825 -1.25,-5.21875 0,-2.212875 0.405,-3.803125 1.21875,-4.75 0.81375,-0.939875 1.90875,-1.40625 3.28125,-1.40625 1.0275,0 1.8525,0.266125 2.5,0.8125 0.64625,0.546875 1.07,1.389125 1.25,2.46875 l 5.40625,-1 c -0.6525,-2.226625 -1.7325,-3.88225 -3.21875,-4.96875 -1.49375,-1.086875 -3.4725,-1.625 -6,-1.625 z m 74.15625,0 c -2.74625,0 -5.03125,1.185125 -6.84375,3.53125 l 0,-3.0625 -5.09375,0 0,20.75 5.46875,0 0,-9.40625 c 0,-2.320375 0.1575,-3.889625 0.4375,-4.75 0.28,-0.859875 0.77875,-1.567375 1.53125,-2.09375 0.75375,-0.5205 1.60875,-0.78125 2.5625,-0.78125 0.73875,0 1.38,0.202625 1.90625,0.5625 0.5275,0.366625 0.9225,0.878 1.15625,1.53125 0.23375,0.65975 0.34375,2.1035 0.34375,4.34375 l 0,10.59375 5.5,0 0,-12.90625 c 0,-1.600125 -0.10625,-2.827625 -0.3125,-3.6875 -0.20125,-0.86025 -0.54875,-1.63275 -1.0625,-2.3125 -0.51375,-0.680125 -1.28125,-1.216375 -2.28125,-1.65625 -1,-0.433625 -2.105,-0.65625 -3.3125,-0.65625 z m 20.0625,0 c -2.48625,0 -4.57625,0.9165 -6.25,2.75 -1.67375,1.839875 -2.53125,4.48925 -2.53125,7.96875 0,2.773375 0.66375,5.102 1.9375,6.96875 1.62625,2.353 3.83875,3.53125 6.625,3.53125 2.5,0 4.54625,-1.13475 6.1875,-3.375 l 0,3.03125 c 0,1.226625 -0.0838,2.078125 -0.25,2.53125 -0.24625,0.639625 -0.61375,1.088375 -1.09375,1.375 -0.72,0.433625 -1.78625,0.65625 -3.21875,0.65625 C 670.355,85.46875 669.52,85.268 669,84.875 c -0.37375,-0.2735 -0.6125,-0.766625 -0.71875,-1.5 l -6.25,-0.75 C 662.0175,82.88475 662,83.09475 662,83.28125 c 0,1.846625 0.745,3.356 2.21875,4.5625 1.46625,1.19975 3.94875,1.8125 7.46875,1.8125 1.86,0 3.40625,-0.207 4.625,-0.59375 1.215,-0.3935 2.1725,-0.90675 2.90625,-1.59375 0.72625,-0.692875 1.3175,-1.661625 1.71875,-2.875 0.40625,-1.213375 0.59375,-3.022 0.59375,-5.46875 l 0,-18.625 -5.125,0 0,2.90625 c -1.66625,-2.253375 -3.78375,-3.375 -6.34375,-3.375 z m 24.4375,0 c -2.98,0 -5.17375,0.617125 -6.59375,1.84375 -1.42,1.21975 -2.125,2.73825 -2.125,4.53125 0,1.993625 0.83,3.536125 2.46875,4.65625 1.1875,0.80625 3.97875,1.713875 8.40625,2.6875 0.94625,0.22025 1.57,0.4595 1.84375,0.71875 0.26,0.273875 0.40625,0.611375 0.40625,1.03125 0,0.607 -0.2625,1.108375 -0.75,1.46875 -0.7125,0.526375 -1.7675,0.78125 -3.1875,0.78125 -1.29375,0 -2.28625,-0.2905 -3,-0.84375 -0.72,-0.55325 -1.205,-1.339875 -1.4375,-2.40625 l -5.5,0.8125 c 0.50625,1.96675 1.5725,3.547375 3.21875,4.6875 1.65375,1.1465 3.89125,1.71875 6.71875,1.71875 3.1125,0 5.44375,-0.69575 7.03125,-2.0625 1.5925,-1.366625 2.40625,-3.006375 2.40625,-4.90625 0,-1.73975 -0.5725,-3.0825 -1.71875,-4.0625 -1.16,-0.96625 -3.205,-1.77725 -6.125,-2.4375 -2.92625,-0.6665 -4.63125,-1.19575 -5.125,-1.5625 -0.3675,-0.273375 -0.5625,-0.606875 -0.5625,-1 0,-0.453625 0.21125,-0.807125 0.625,-1.09375 0.62625,-0.40675 1.6775,-0.625 3.125,-0.625 1.14625,0 2.005,0.222625 2.625,0.65625 0.62,0.42675 1.06125,1.037125 1.28125,1.84375 l 5.15625,-0.9375 c -0.51875,-1.813375 -1.46375,-3.19875 -2.84375,-4.125 -1.37875,-0.9205 -3.50375,-1.375 -6.34375,-1.375 z m 42.625,0 c -2.74625,0 -5.02,0.9595 -6.8125,2.90625 -1.8,1.946375 -2.71875,4.653375 -2.71875,8.09375 0,2.873 0.69625,5.27 2.0625,7.15625 1.73375,2.360375 4.3925,3.53125 8,3.53125 2.27875,0 4.17375,-0.541125 5.6875,-1.59375 1.52,-1.046875 2.63625,-2.556125 3.34375,-4.5625 l -5.46875,-0.90625 c -0.29375,1.040125 -0.7575,1.776875 -1.34375,2.25 -0.58625,0.466875 -1.2975,0.71875 -2.15625,0.71875 -1.26125,0 -2.31,-0.46825 -3.15625,-1.375 -0.84625,-0.899875 -1.30375,-2.15425 -1.34375,-3.78125 l 13.75,0 c 0.0738,-4.2065 -0.7825,-7.3345 -2.5625,-9.375 -1.78625,-2.039625 -4.19375,-3.0625 -7.28125,-3.0625 z m 26.21875,0 c -2.74625,0 -5.03,1.185125 -6.84375,3.53125 l 0,-3.0625 -5.09375,0 0,20.75 5.5,0 0,-9.40625 c 0,-2.320375 0.12625,-3.889625 0.40625,-4.75 0.28,-0.859875 0.80875,-1.567375 1.5625,-2.09375 0.75375,-0.5205 1.60875,-0.78125 2.5625,-0.78125 0.74,0 1.37875,0.202625 1.90625,0.5625 0.52625,0.366625 0.8925,0.878 1.125,1.53125 0.23375,0.65975 0.375,2.1035 0.375,4.34375 l 0,10.59375 5.46875,0 0,-12.90625 c 0,-1.600125 -0.10625,-2.827625 -0.3125,-3.6875 -0.2,-0.86025 -0.55,-1.63275 -1.0625,-2.3125 -0.51375,-0.680125 -1.28125,-1.216375 -2.28125,-1.65625 -1.00125,-0.433625 -2.105,-0.65625 -3.3125,-0.65625 z m 35.4375,0 c -0.88625,0 -1.67625,0.21625 -2.375,0.65625 -0.69375,0.44 -1.47,1.3565 -2.34375,2.75 l 0,-2.9375 -5.09375,0 0,20.75 5.5,0 0,-6.40625 c 0,-3.526375 0.13,-5.86225 0.4375,-6.96875 0.30625,-1.106375 0.74125,-1.861375 1.28125,-2.28125 0.5325,-0.426375 1.165,-0.625 1.9375,-0.625 0.79375,0 1.67375,0.281625 2.59375,0.875 l 1.6875,-4.78125 c -1.16,-0.692875 -2.37125,-1.03125 -3.625,-1.03125 z m 41.53125,0 c -2.5,0 -4.6625,1.112875 -6.46875,3.3125 l 0,-2.84375 -5.0625,0 0,20.75 5.5,0 0,-10.09375 c 0,-1.993125 0.14375,-3.390125 0.4375,-4.25 0.29375,-0.859875 0.78875,-1.546375 1.46875,-2 0.67375,-0.46 1.435,-0.6875 2.28125,-0.6875 0.70625,0 1.2425,0.1505 1.65625,0.4375 0.40625,0.286625 0.71375,0.726 0.90625,1.3125 0.19375,0.586875 0.3125,1.886625 0.3125,3.90625 l 0,11.375 5.46875,0 0,-9.96875 c 0,-1.953125 0.16875,-3.3745 0.46875,-4.28125 0.3,-0.906625 0.76375,-1.59575 1.4375,-2.0625 0.68,-0.473125 1.41375,-0.71875 2.1875,-0.71875 1.05375,0 1.8375,0.40775 2.34375,1.1875 0.38,0.600125 0.5625,1.90875 0.5625,3.96875 l 0,11.875 5.5,0 0,-13.28125 c 0,-1.98 -0.215,-3.395125 -0.59375,-4.28125 -0.52,-1.193375 -1.29125,-2.1055 -2.34375,-2.71875 -1.05375,-0.620125 -2.355,-0.9375 -3.875,-0.9375 -1.2,0 -2.32125,0.266125 -3.375,0.8125 -1.05375,0.546375 -2.03125,1.393125 -2.9375,2.5 -0.62625,-1.106875 -1.42625,-1.953625 -2.40625,-2.5 -0.97375,-0.546375 -2.1425,-0.8125 -3.46875,-0.8125 z M 613.53125,60.5 l 0,13.125 c 0,1.952625 0.25625,3.487375 0.75,4.59375 0.5,1.107 1.29875,1.9805 2.40625,2.59375 1.10625,0.606875 2.35625,0.90625 3.75,0.90625 1.36625,0 2.6725,-0.335875 3.90625,-0.96875 1.22625,-0.6405 2.20875,-1.518125 2.96875,-2.625 l 0,3.125 5.09375,0 0,-20.75 -5.46875,0 0,8.75 c 0,2.96675 -0.16375,4.827125 -0.4375,5.59375 -0.2725,0.75975 -0.76,1.38625 -1.5,1.90625 -0.74,0.51325 -1.5925,0.78125 -2.53125,0.78125 -0.82,0 -1.4975,-0.17575 -2.03125,-0.5625 -0.53375,-0.38675 -0.89375,-0.90925 -1.09375,-1.5625 -0.20625,-0.65975 -0.3125,-2.455125 -0.3125,-5.375 l 0,-9.53125 -5.5,0 z m 94.21875,0 0,4.5625 L 715.09375,65 c 1.04,-0.01375 1.86625,-0.0225 2.5,-0.0625 -0.60625,0.61325 -1.54,1.633875 -2.8125,3.09375 L 707,76.96875 l 0,4.28125 18.5,0 0,-4.84375 -8.46875,0 c -0.3675,0 -1.32375,0.063 -2.84375,0.15625 l 2.78125,-3.03125 7.9375,-9.125 0,-3.90625 -17.15625,0 z m 96.90625,0 0,13.125 c 0,1.952625 0.2575,3.487375 0.75,4.59375 0.5,1.107 1.3,1.9805 2.40625,2.59375 1.1075,0.606875 2.325,0.90625 3.71875,0.90625 1.36625,0 2.6725,-0.335875 3.90625,-0.96875 1.22625,-0.6405 2.24,-1.518125 3,-2.625 l 0,3.125 5.09375,0 0,-20.75 -5.5,0 0,8.75 c 0,2.96675 -0.1325,4.827125 -0.40625,5.59375 -0.2725,0.75975 -0.7925,1.38625 -1.53125,1.90625 -0.74,0.51325 -1.56125,0.78125 -2.5,0.78125 -0.82125,0 -1.53,-0.17575 -2.0625,-0.5625 -0.53375,-0.38675 -0.89375,-0.90925 -1.09375,-1.5625 -0.2075,-0.65975 -0.3125,-2.455125 -0.3125,-5.375 l 0,-9.53125 -5.46875,0 z m -133.1875,3.71875 c 1.35375,0 2.46375,0.546875 3.34375,1.59375 0.88625,1.0395 1.34375,2.6035 1.34375,4.75 0,2.060125 -0.48625,3.640625 -1.40625,4.6875 -0.92625,1.046375 -2.06625,1.5625 -3.40625,1.5625 -1.2525,0 -2.30375,-0.51175 -3.15625,-1.53125 -0.85375,-1.0205 -1.25,-2.644125 -1.25,-4.84375 0,-2.100125 0.39625,-3.660625 1.25,-4.6875 0.8525,-1.02 1.96125,-1.53125 3.28125,-1.53125 z m 65.96875,0 c 1.12,0 2.095,0.42375 2.875,1.25 0.78,0.826625 1.17875,2.03175 1.21875,3.625 l -8.21875,0 c -0.0137,-1.5 0.37625,-2.69575 1.15625,-3.5625 0.78,-0.8735 1.76875,-1.3125 2.96875,-1.3125 z M 514.15625,64.5 c 1.43375,0 2.65875,0.5635 3.625,1.65625 0.97375,1.09375 1.4375,2.66075 1.4375,4.6875 0,2.0865 -0.46375,3.65625 -1.4375,4.75 -0.96625,1.09275 -2.19125,1.65625 -3.625,1.65625 -1.4325,0 -2.62,-0.5635 -3.59375,-1.65625 -0.98,-1.09375 -1.46875,-2.65925 -1.46875,-4.71875 0,-2.05375 0.48875,-3.625 1.46875,-4.71875 C 511.53625,65.0635 512.72375,64.5 514.15625,64.5 z m -26.8125,32.3125 c -1.52,0 -2.78125,0.272375 -3.78125,0.8125 -0.9925,0.54 -1.68875,1.233875 -2.0625,2.09375 -0.37375,0.85988 -0.5625,2.166 -0.5625,3.90625 l 0,1.5625 -3.03125,0 0,4.3125 3.03125,0 0,16.4375 5.5,0 0,-16.4375 4.09375,0 0,-4.3125 -4.09375,0 0,-1.46875 c 0,-1.05325 0.1525,-1.752 0.5,-2.125 0.34625,-0.3735 0.91875,-0.5625 1.71875,-0.5625 0.8075,0 1.65875,0.0991 2.53125,0.3125 l 0.75,-3.84375 c -1.5,-0.46625 -3.0275,-0.6875 -4.59375,-0.6875 z m 9.03125,0 0,4.71875 4.71875,0 0,-4.71875 -4.71875,0 z m 8.40625,0 0,4.71875 4.71875,0 0,-4.71875 -4.71875,0 z m 71.59375,0 0,4.71875 4.71875,0 0,-4.71875 -4.71875,0 z m 8.40625,0 0,4.71875 4.71875,0 0,-4.71875 -4.71875,0 z m -39.9375,0.5 0,28.625 5.78125,0 0,-8.65625 4.6875,-4.78125 7.875,13.4375 7.46875,0 -11.34375,-17.5 10.78125,-11.125 -7.78125,0 L 550.625,110 l 0,-12.6875 -5.78125,0 z m 113.21875,0 0,28.625 5.46875,0 0,-28.625 -5.46875,0 z m 11.09375,0 0,5.0625 5.5,0 0,-5.0625 -5.5,0 z m 33.34375,0 0,28.625 5.5,0 0,-10.40625 c 0,-1.74025 0.16625,-3.044 0.5,-3.9375 0.32625,-0.89312 0.84375,-1.55963 1.5625,-2 0.71375,-0.44675 1.525,-0.6875 2.4375,-0.6875 0.79375,0 1.47375,0.18462 2,0.53125 0.5275,0.34675 0.88,0.81975 1.09375,1.40625 0.20625,0.58688 0.3125,1.95162 0.3125,4.125 l 0,10.96875 5.5,0 0,-12.1875 c 0,-1.85988 -0.11875,-3.21337 -0.3125,-4.09375 -0.18625,-0.88663 -0.5175,-1.7045 -1.03125,-2.4375 -0.5125,-0.727 -1.29875,-1.3145 -2.3125,-1.78125 -1.02,-0.46638 -2.14,-0.71875 -3.40625,-0.71875 -2.46,0 -4.57125,1.02687 -6.34375,3.09375 l 0,-10.5 -5.5,0 z m -52,0.5625 -5.5,3.1875 0,4.125 -2.53125,0 0,4.375 2.53125,0 0,9.03125 c 0,1.94 0.0425,3.24162 0.15625,3.875 0.14625,0.89987 0.4075,1.62937 0.78125,2.15625 0.3725,0.52637 0.95625,0.94813 1.75,1.28125 0.7925,0.32712 1.66875,0.5 2.65625,0.5 1.61875,0 3.0625,-0.29687 4.34375,-0.84375 l -0.46875,-4.25 c -0.9675,0.34613 -1.705,0.53125 -2.21875,0.53125 -0.35875,0 -0.6525,-0.101 -0.90625,-0.28125 -0.2525,-0.1865 -0.42625,-0.40712 -0.5,-0.6875 -0.0738,-0.27975 -0.0937,-1.24412 -0.0937,-2.9375 l 0,-8.375 3.75,0 0,-4.375 -3.75,0 0,-7.3125 z m -122.84375,6.84375 c -0.8875,0 -1.675,0.21637 -2.375,0.65625 -0.69375,0.44 -1.50125,1.35637 -2.375,2.75 l 0,-2.9375 -5.09375,0 0,20.75 5.5,0 0,-6.40625 c 0,-3.52637 0.16125,-5.86225 0.46875,-6.96875 0.30625,-1.10637 0.71,-1.86187 1.25,-2.28125 0.53375,-0.42675 1.195,-0.625 1.96875,-0.625 0.7925,0 1.6425,0.28175 2.5625,0.875 L 531.25,105.75 c -1.15875,-0.69287 -2.34125,-1.03125 -3.59375,-1.03125 z m 82.28125,0 c -2.7475,0 -4.99875,1.185 -6.8125,3.53125 l 0,-3.0625 -5.09375,0 0,20.75 5.46875,0 0,-9.40625 c 0,-2.32037 0.1575,-3.88962 0.4375,-4.75 0.27875,-0.85987 0.77875,-1.56737 1.53125,-2.09375 0.75375,-0.5205 1.60875,-0.78125 2.5625,-0.78125 0.74,0 1.38,0.20262 1.90625,0.5625 0.5275,0.36675 0.92375,0.87787 1.15625,1.53125 0.23375,0.65962 0.34375,2.1035 0.34375,4.34375 l 0,10.59375 5.5,0 0,-12.90625 c 0,-1.60013 -0.105,-2.82763 -0.3125,-3.6875 -0.2,-0.86038 -0.58125,-1.63287 -1.09375,-2.3125 -0.51375,-0.68025 -1.25,-1.21637 -2.25,-1.65625 -1,-0.43363 -2.1375,-0.65625 -3.34375,-0.65625 z m 20.09375,0 c -2.98,0 -5.17375,0.61725 -6.59375,1.84375 -1.42,1.21975 -2.125,2.73825 -2.125,4.53125 0,1.99363 0.82875,3.53612 2.46875,4.65625 1.18625,0.80612 3.98,1.71438 8.40625,2.6875 0.94625,0.22025 1.57,0.4595 1.84375,0.71875 0.25875,0.274 0.40625,0.61125 0.40625,1.03125 0,0.60688 -0.26375,1.10838 -0.75,1.46875 -0.71375,0.52638 -1.7675,0.78125 -3.1875,0.78125 -1.29375,0 -2.28625,-0.2905 -3,-0.84375 -0.71875,-0.55325 -1.20375,-1.371 -1.4375,-2.4375 l -5.5,0.84375 c 0.50625,1.96675 1.5725,3.54738 3.21875,4.6875 1.65375,1.1465 3.8925,1.71875 6.71875,1.71875 3.11375,0 5.445,-0.69588 7.03125,-2.0625 1.59375,-1.36675 2.40625,-3.00638 2.40625,-4.90625 0,-1.73975 -0.5725,-3.082 -1.71875,-4.0625 -1.16125,-0.96625 -3.20625,-1.77737 -6.125,-2.4375 -2.9275,-0.6665 -4.63125,-1.19587 -5.125,-1.5625 -0.36625,-0.2735 -0.5625,-0.60687 -0.5625,-1 0,-0.45362 0.21125,-0.80712 0.625,-1.09375 0.62625,-0.40675 1.67875,-0.625 3.125,-0.625 1.1475,0 2.005,0.22275 2.625,0.65625 0.62,0.42675 1.0625,1.0375 1.28125,1.84375 l 5.15625,-0.9375 c -0.52,-1.8135 -1.46375,-3.19875 -2.84375,-4.125 -1.38,-0.92038 -3.50375,-1.375 -6.34375,-1.375 z m 59.09375,0 c -3.0875,0 -5.53,0.96137 -7.34375,2.875 -1.80625,1.90675 -2.71875,4.54888 -2.71875,7.96875 0,3.38625 0.9125,6.05525 2.71875,7.96875 1.8,1.91362 4.21625,2.875 7.25,2.875 2.6725,0 4.7875,-0.63963 6.375,-1.90625 1.58625,-1.25975 2.69,-3.12063 3.25,-5.59375 l -5.40625,-0.9375 c -0.2725,1.44 -0.73875,2.46875 -1.40625,3.0625 -0.66625,0.59275 -1.51625,0.90625 -2.5625,0.90625 -1.3925,0 -2.48625,-0.5185 -3.3125,-1.53125 -0.82625,-1.01362 -1.25,-2.75838 -1.25,-5.21875 0,-2.213 0.405,-3.80325 1.21875,-4.75 0.81375,-0.94 1.9075,-1.40625 3.28125,-1.40625 1.02625,0 1.85375,0.26613 2.5,0.8125 0.64625,0.54687 1.07,1.38912 1.25,2.46875 l 5.40625,-1 c -0.65375,-2.22662 -1.7325,-3.88237 -3.21875,-4.96875 -1.49375,-1.087 -3.505,-1.625 -6.03125,-1.625 z m 45.75,0 c -2.74625,0 -5.01875,0.95938 -6.8125,2.90625 -1.79875,1.94625 -2.71875,4.65337 -2.71875,8.09375 0,2.87313 0.69625,5.27 2.0625,7.15625 1.73375,2.36038 4.39375,3.53125 8,3.53125 2.28,0 4.17375,-0.541 5.6875,-1.59375 1.52,-1.04688 2.63625,-2.55613 3.34375,-4.5625 l -5.46875,-0.90625 c -0.29375,1.04 -0.72625,1.77688 -1.3125,2.25 -0.5875,0.46688 -1.3275,0.71875 -2.1875,0.71875 -1.26,0 -2.31,-0.46825 -3.15625,-1.375 -0.84625,-0.89987 -1.305,-2.15425 -1.34375,-3.78125 l 13.78125,0 c 0.0725,-4.2065 -0.7825,-7.3345 -2.5625,-9.375 -1.78625,-2.03962 -4.22625,-3.0625 -7.3125,-3.0625 z m -241.375,0.46875 0,13.125 c 0,1.95262 0.2575,3.48725 0.75,4.59375 0.5,1.10688 1.3,1.94925 2.40625,2.5625 1.1075,0.607 2.35625,0.9375 3.75,0.9375 1.36625,0 2.6725,-0.336 3.90625,-0.96875 1.22625,-0.64062 2.2075,-1.51812 2.96875,-2.625 l 0,3.125 5.09375,0 0,-20.75 -5.5,0 0,8.75 c 0,2.96675 -0.1325,4.82712 -0.40625,5.59375 -0.2725,0.75975 -0.79125,1.38612 -1.53125,1.90625 -0.74,0.51313 -1.56,0.78125 -2.5,0.78125 -0.82,0 -1.49875,-0.17575 -2.03125,-0.5625 -0.53375,-0.38663 -0.89375,-0.90913 -1.09375,-1.5625 -0.2075,-0.65962 -0.3125,-2.455 -0.3125,-5.375 l 0,-9.53125 -5.5,0 z m 80,0 0,13.125 c 0,1.95262 0.2575,3.48725 0.75,4.59375 0.5,1.10688 1.3,1.94925 2.40625,2.5625 1.1075,0.607 2.35625,0.9375 3.75,0.9375 1.36625,0 2.6725,-0.336 3.90625,-0.96875 1.22625,-0.64062 2.20875,-1.51812 2.96875,-2.625 l 0,3.125 5.09375,0 0,-20.75 -5.5,0 0,8.75 c 0,2.96675 -0.1325,4.82712 -0.40625,5.59375 -0.2725,0.75975 -0.7925,1.38612 -1.53125,1.90625 -0.74125,0.51313 -1.56125,0.78125 -2.5,0.78125 -0.82125,0 -1.4975,-0.17575 -2.03125,-0.5625 -0.53375,-0.38663 -0.89375,-0.90913 -1.09375,-1.5625 -0.2075,-0.65962 -0.3125,-2.455 -0.3125,-5.375 l 0,-9.53125 -5.5,0 z m 95.65625,0 0,20.75 5.5,0 0,-20.75 -5.5,0 z m 66.03125,3.71875 c 1.12,0 2.09625,0.42337 2.875,1.25 0.78,0.82613 1.17875,2.03163 1.21875,3.625 l -8.1875,0 c -0.0137,-1.5 0.375,-2.69588 1.15625,-3.5625 0.77875,-0.87363 1.7375,-1.3125 2.9375,-1.3125 z M 700.25,141.5 c -2.73375,0 -5.04125,0.48438 -6.875,1.4375 -2.41375,1.23337 -4.21625,2.999 -5.46875,5.3125 -1.2475,2.31987 -1.875,4.9575 -1.875,7.9375 0,2.74662 0.53625,5.31588 1.65625,7.65625 1.12,2.34025 2.805,4.11474 5.03125,5.375 2.22625,1.25293 4.85,1.875 7.84375,1.875 2.35375,0 4.66875,-0.42577 6.96875,-1.3125 2.3,-0.89355 4.0675,-1.9521 5.28125,-3.125 l 0,-11.40625 -12.46875,0 0,4.84375 6.625,0 0,3.625 c -0.8725,0.67388 -1.9425,1.2455 -3.15625,1.71875 -1.22,0.47313 -2.4125,0.71875 -3.625,0.71875 -2.44625,0 -4.43,-0.83113 -5.9375,-2.53125 -1.5125,-1.69975 -2.28125,-4.26275 -2.28125,-7.65625 0,-3.15338 0.7575,-5.5185 2.25,-7.125 1.49375,-1.6 3.50375,-2.40625 6.03125,-2.40625 1.66625,0 3.0425,0.40525 4.15625,1.21875 1.1125,0.813 1.875,1.937 2.28125,3.34375 l 5.75,-1.09375 c -0.57375,-2.63325 -1.875,-4.69438 -3.875,-6.1875 -1.99375,-1.48687 -4.76,-2.21875 -8.3125,-2.21875 z m -220.09375,0.46875 0,28.65625 5.78125,0 0,-28.65625 -5.78125,0 z m 71.25,0 0,28.65625 5.5,0 0,-28.65625 -5.5,0 z m 11.125,0 0,28.65625 5.5,0 0,-28.65625 -5.5,0 z m 11.125,0 0,5.09375 5.46875,0 0,-5.09375 -5.46875,0 z m 179.78125,0 0,28.65625 5.09375,0 0,-3.0625 c 0.83375,1.15966 1.815,2.03174 2.96875,2.625 1.15375,0.59326 2.31375,0.90625 3.5,0.90625 2.40625,0 4.47,-0.96142 6.15625,-2.875 1.68625,-1.91356 2.53125,-4.64738 2.53125,-8.1875 0,-3.42675 -0.8475,-6.04838 -2.5,-7.875 -1.66,-1.82663 -3.72375,-2.75 -6.25,-2.75 -2.32,0 -4.3375,0.94825 -6.03125,2.875 l 0,-10.3125 -5.46875,0 z m 24.71875,0 0,28.65625 5.78125,0 0,-12.53125 11.3125,0 0,12.53125 5.78125,0 0,-28.65625 -5.78125,0 0,11.28125 -11.3125,0 0,-11.28125 -5.78125,0 z m -256.53125,0.59375 -5.53125,3.1875 0,4.125 -2.5,0 0,4.375 2.5,0 0,9.03125 c 0,1.94 0.075,3.24175 0.1875,3.875 0.14625,0.8999 0.4075,1.59814 0.78125,2.125 0.3725,0.52636 0.9575,0.9795 1.75,1.3125 0.79375,0.32715 1.67,0.5 2.65625,0.5 1.62,0 3.06375,-0.29687 4.34375,-0.84375 L 525.34375,166 c -0.9675,0.34625 -1.705,0.53125 -2.21875,0.53125 -0.36,0 -0.65375,-0.10113 -0.90625,-0.28125 -0.25375,-0.18663 -0.42625,-0.40725 -0.5,-0.6875 -0.0725,-0.27988 -0.0937,-1.24412 -0.0937,-2.9375 l 0,-8.375 3.71875,0 0,-4.375 -3.71875,0 0,-7.3125 z m -18.3125,6.84375 c -2.74625,0 -5.03,1.185 -6.84375,3.53125 l 0,-3.0625 -5.09375,0 0,20.75 5.5,0 0,-9.40625 c 0,-2.32025 0.12625,-3.88962 0.40625,-4.75 0.28,-0.85975 0.80875,-1.56737 1.5625,-2.09375 0.7525,-0.5205 1.60875,-0.78125 2.5625,-0.78125 0.74,0 1.37875,0.20263 1.90625,0.5625 0.52625,0.36675 0.89125,0.87788 1.125,1.53125 0.23375,0.65963 0.375,2.1035 0.375,4.34375 l 0,10.59375 5.46875,0 0,-12.90625 c 0,-1.60012 -0.105,-2.82762 -0.3125,-3.6875 -0.2,-0.86038 -0.55,-1.63287 -1.0625,-2.3125 -0.51375,-0.68025 -1.28125,-1.21625 -2.28125,-1.65625 -1,-0.43363 -2.10625,-0.65625 -3.3125,-0.65625 z m 33.75,0 c -2.74625,0 -5.02,0.9595 -6.8125,2.90625 -1.80125,1.94625 -2.6875,4.65325 -2.6875,8.09375 0,2.873 0.69625,5.27006 2.0625,7.15625 1.73375,2.36035 4.39375,3.53125 8,3.53125 2.28,0 4.17375,-0.54101 5.6875,-1.59375 1.52,-1.04688 2.63625,-2.55625 3.34375,-4.5625 l -5.46875,-0.90625 c -0.29375,1.04 -0.7575,1.77687 -1.34375,2.25 -0.5875,0.46675 -1.29625,0.6875 -2.15625,0.6875 -1.26125,0 -2.31,-0.437 -3.15625,-1.34375 -0.84625,-0.89988 -1.30375,-2.15438 -1.34375,-3.78125 l 13.75,0 c 0.0738,-4.20663 -0.7825,-7.3345 -2.5625,-9.375 -1.78625,-2.0395 -4.22625,-3.0625 -7.3125,-3.0625 z m 55.21875,0 c -2.48625,0 -4.57625,0.9165 -6.25,2.75 -1.6725,1.83988 -2.5,4.48925 -2.5,7.96875 0,2.7735 0.6325,5.102 1.90625,6.96875 1.62625,2.35304 3.83875,3.53125 6.625,3.53125 2.5,0 4.57875,-1.13527 6.21875,-3.375 l 0,3.03125 c 0,1.22656 -0.0838,2.07813 -0.25,2.53125 -0.24625,0.63965 -0.61375,1.08839 -1.09375,1.375 -0.72,0.4336 -1.81625,0.65625 -3.25,0.65625 -1.11375,0 -1.9175,-0.20069 -2.4375,-0.59375 -0.3725,-0.27344 -0.6125,-0.7666 -0.71875,-1.5 L 584.25,171.96875 c -0.0137,0.25976 -0.0313,0.50097 -0.0313,0.6875 0,1.84669 0.745,3.35596 2.21875,4.5625 1.4675,1.19971 3.94875,1.8125 7.46875,1.8125 1.86,0 3.405,-0.20704 4.625,-0.59375 1.21375,-0.39308 2.205,-0.90674 2.9375,-1.59375 0.72625,-0.69288 1.2875,-1.66163 1.6875,-2.875 0.40625,-1.21338 0.59375,-3.02246 0.59375,-5.46875 l 0,-18.625 -5.125,0 0,2.90625 c -1.66625,-2.2535 -3.78375,-3.375 -6.34375,-3.375 z m 24.8125,0 c -2.7475,0 -5.01875,0.9595 -6.8125,2.90625 -1.8,1.94625 -2.6875,4.65325 -2.6875,8.09375 0,2.873 0.665,5.27006 2.03125,7.15625 1.73375,2.36035 4.425,3.53125 8.03125,3.53125 2.28,0 4.17375,-0.54101 5.6875,-1.59375 1.52,-1.04688 2.60625,-2.55625 3.3125,-4.5625 l -5.46875,-0.90625 c -0.29375,1.04 -0.72625,1.77687 -1.3125,2.25 -0.58625,0.46675 -1.3275,0.6875 -2.1875,0.6875 -1.26,0 -2.31,-0.437 -3.15625,-1.34375 -0.8475,-0.89988 -1.27375,-2.15438 -1.3125,-3.78125 l 13.75,0 c 0.0738,-4.20663 -0.7825,-7.3345 -2.5625,-9.375 -1.78625,-2.0395 -4.22625,-3.0625 -7.3125,-3.0625 z m 26.25,0 c -2.74625,0 -5.03,1.185 -6.84375,3.53125 l 0,-3.0625 -5.09375,0 0,20.75 5.46875,0 0,-9.40625 c 0,-2.32025 0.1575,-3.88962 0.4375,-4.75 0.28,-0.85975 0.77875,-1.56737 1.53125,-2.09375 0.75375,-0.5205 1.61,-0.78125 2.5625,-0.78125 0.74,0 1.38,0.20263 1.90625,0.5625 0.5275,0.36675 0.9225,0.87788 1.15625,1.53125 0.2325,0.65963 0.34375,2.1035 0.34375,4.34375 l 0,10.59375 5.5,0 0,-12.90625 c 0,-1.60012 -0.105,-2.82762 -0.3125,-3.6875 -0.2,-0.86038 -0.55,-1.63287 -1.0625,-2.3125 -0.51375,-0.68025 -1.28125,-1.21625 -2.28125,-1.65625 -1,-0.43363 -2.10625,-0.65625 -3.3125,-0.65625 z m 85.875,0 c -2.5,0 -4.6625,1.0815 -6.46875,3.28125 l 0,-2.8125 -5.0625,0 0,20.75 5.46875,0 0,-10.09375 c 0,-1.99312 0.14375,-3.42138 0.4375,-4.28125 0.2925,-0.85975 0.78875,-1.51513 1.46875,-1.96875 0.67375,-0.45988 1.43375,-0.6875 2.28125,-0.6875 0.70625,0 1.275,0.15037 1.6875,0.4375 0.40625,0.28662 0.7125,0.72612 0.90625,1.3125 0.1925,0.587 0.28125,1.88625 0.28125,3.90625 l 0,11.375 5.5,0 0,-9.96875 c 0,-1.95313 0.1375,-3.3745 0.4375,-4.28125 0.3,-0.90675 0.79625,-1.59575 1.46875,-2.0625 0.68,-0.47325 1.3825,-0.71875 2.15625,-0.71875 1.0525,0 1.8375,0.40775 2.34375,1.1875 0.38,0.60012 0.5625,1.90913 0.5625,3.96875 l 0,11.875 5.5,0 0,-13.28125 c 0,-1.98 -0.1825,-3.395 -0.5625,-4.28125 -0.52,-1.19338 -1.32125,-2.10538 -2.375,-2.71875 -1.0525,-0.62013 -2.32375,-0.9375 -3.84375,-0.9375 -1.2,0 -2.3525,0.26613 -3.40625,0.8125 -1.05375,0.54638 -2.03125,1.36187 -2.9375,2.46875 -0.6275,-1.10688 -1.4275,-1.92237 -2.40625,-2.46875 -0.97375,-0.54637 -2.11125,-0.8125 -3.4375,-0.8125 z m -155.5625,0.46875 0,20.75 5.46875,0 0,-20.75 -5.46875,0 z m 80.78125,0 0,4.5625 7.3125,-0.0625 c 1.04,-0.0136 1.8675,-0.0225 2.5,-0.0625 -0.60625,0.61375 -1.53875,1.63375 -2.8125,3.09375 l -7.78125,8.9375 0,4.28125 18.53125,0 0,-4.84375 -8.5,0 c -0.36625,0 -1.32375,0.0629 -2.84375,0.15625 l 2.8125,-3.03125 7.90625,-9.15625 0,-3.875 -17.125,0 z m -117.03125,3.71875 c 1.12,0 2.065,0.42337 2.84375,1.25 0.78,0.82662 1.21,2.03175 1.25,3.625 l -8.21875,0 c -0.0137,-1.5 0.37625,-2.69575 1.15625,-3.5625 0.78,-0.8735 1.76875,-1.3125 2.96875,-1.3125 z m 56.28125,0 c 1.35375,0 2.46375,0.51563 3.34375,1.5625 0.88625,1.03963 1.34375,2.63475 1.34375,4.78125 0,2.06 -0.48625,3.64062 -1.40625,4.6875 -0.92625,1.04638 -2.035,1.5625 -3.375,1.5625 -1.2525,0 -2.3025,-0.51175 -3.15625,-1.53125 -0.85375,-1.0205 -1.28125,-2.644 -1.28125,-4.84375 0,-2.10012 0.4275,-3.66062 1.28125,-4.6875 0.85375,-1.02 1.93125,-1.53125 3.25,-1.53125 z m 23.75,0 c 1.12,0 2.06375,0.42337 2.84375,1.25 0.78,0.82662 1.17875,2.03175 1.21875,3.625 l -8.1875,0 c -0.0137,-1.5 0.37625,-2.69575 1.15625,-3.5625 0.78,-0.8735 1.77,-1.3125 2.96875,-1.3125 z m 146.03125,0 c 1.34625,0 2.4275,0.54737 3.28125,1.59375 0.86,1.04688 1.3125,2.75875 1.3125,5.125 0,2.227 -0.4275,3.84188 -1.28125,4.875 -0.8525,1.03325 -1.8875,1.5625 -3.09375,1.5625 -1.58,0 -2.85875,-0.7275 -3.8125,-2.1875 -0.6725,-1.03325 -1,-2.63475 -1,-4.78125 0,-2.08688 0.43875,-3.62937 1.3125,-4.65625 0.87375,-1.02 1.9675,-1.53125 3.28125,-1.53125 z"
     id="path2108"
     style="fill:#231f20;fill-opacity:1;fill-rule:nonzero;stroke:none" /><rect
     width="156.313"
     height="172.76399"
     x="299.315"
     y="6.9000053"
     id="rect19805"
     style="fill:url(#linearGradient3524);fill-opacity:1;stroke:none" /><rect
     width="157.4312"
     height="138.2112"
     x="153.67999"
     y="-138.48"
     transform="matrix(1.25,0,0,1.25,0,180)"
     clip-path="url(#clipPath23256)"
     id="rect19801"
     style="fill:url(#linearGradient19803);fill-opacity:1;stroke:none" /><rect
     width="155.6904"
     height="138.2112"
     x="84.667198"
     y="-138.48"
     transform="matrix(1.25,0,0,1.25,0,180)"
     clip-path="url(#clipPath23232)"
     id="rect19797"
     style="fill:url(#linearGradient19799);fill-opacity:1;stroke:none" /><rect
     width="139.48241"
     height="138.2112"
     x="0.53439999"
     y="-138.48"
     transform="matrix(1.25,0,0,1.25,0,180)"
     clip-path="url(#clipPath23205)"
     id="rect18998"
     style="fill:url(#linearGradient19774);fill-opacity:1;stroke:none" /></svg>